<svg width="192" height="192" viewBox="0 0 192 192" fill="none" xmlns="http://www.w3.org/2000/svg">
<rect width="192" height="192" fill="#EDEDED"/>
<path d="M80.4167 20.0833V35.1667" stroke="black" stroke-width="4" stroke-linecap="round" stroke-linejoin="round"/>
<path d="M110.583 20.0833V35.1667" stroke="black" stroke-width="4" stroke-linecap="round" stroke-linejoin="round"/>
<path d="M125.667 65.3333C127.667 65.3333 129.585 66.1279 130.999 67.5422C132.414 68.9566 133.208 70.8748 133.208 72.875V133.208C133.208 141.209 130.03 148.882 124.373 154.539C118.715 160.197 111.042 163.375 103.042 163.375H57.7917C49.791 163.375 42.118 160.197 36.4606 154.539C30.8033 148.882 27.625 141.209 27.625 133.208V72.875C27.625 70.8748 28.4196 68.9566 29.8339 67.5422C31.2482 66.1279 33.1665 65.3333 35.1667 65.3333H140.75C148.751 65.3333 156.424 68.5116 162.081 74.169C167.738 79.8263 170.917 87.4993 170.917 95.5C170.917 103.501 167.738 111.174 162.081 116.831C156.424 122.488 148.751 125.667 140.75 125.667H133.208" stroke="black" stroke-width="4" stroke-linecap="round" stroke-linejoin="round"/>
<path d="M50.25 20.0833V35.1667" stroke="black" stroke-width="4" stroke-linecap="round" stroke-linejoin="round"/>
</svg>
